<svg aria-hidden="true" style="position:absolute;width:0;height:0;overflow:hidden" xmlns="http://www.w3.org/2000/svg"><defs><symbol id="icon-astronaut" viewBox="0 0 64 64"><path fill="#2196f3" d="M63.948 9.048c-.126-.385-.459-.667-.861-.725l-3.821-.556-1.71-3.462c-.358-.73-1.554-.73-1.913 0l-1.71 3.462-3.821.556c-.402.059-.735.339-.862.725-.125.386-.021.811.27 1.093l2.766 2.696-.653 3.806c-.068.4.096.804.423 1.043.332.241.765.271 1.124.081l3.418-1.797 3.418 1.797c.156.082.328.123.497.123.221 0 .442-.068.627-.204.328-.239.493-.643.423-1.043l-.653-3.806 2.766-2.695c.29-.284.394-.707.27-1.093zm-4.926 2.654c-.251.244-.366.598-.306.944l.382 2.228-2.001-1.052c-.156-.082-.326-.123-.497-.123s-.34.04-.497.123l-2.001 1.052.382-2.228c.06-.346-.056-.699-.306-.944l-1.62-1.579 2.238-.325c.348-.05.648-.269.803-.584L56.6 7.187l1.001 2.027c.156.315.456.533.803.584l2.238.325-1.618 1.579zM52.267 41.044h-2.133v2.133h2.133v-2.133zM52.267 45.311h-2.133v2.133h2.133v-2.133zM54.4 43.178h-2.133v2.133H54.4v-2.133zM50.134 43.178h-2.133v2.133h2.133v-2.133zM44.8 52.778h-2.133v2.133H44.8v-2.133zM44.8 57.045h-2.133v2.133H44.8v-2.133zM46.934 54.911h-2.133v2.133h2.133v-2.133zM42.667 54.911h-2.133v2.133h2.133v-2.133zM32 48.511h-2.133v2.133H32v-2.133zM32 52.778h-2.133v2.133H32v-2.133zM34.133 50.645H32v2.133h2.133v-2.133zM29.867 50.645h-2.133v2.133h2.133v-2.133zM11.733 12.244H9.6v2.133h2.133v-2.133zM11.733 16.511H9.6v2.133h2.133v-2.133zM13.866 14.377h-2.133v2.133h2.133v-2.133zM9.6 14.377H7.467v2.133H9.6v-2.133z"/><path fill="#212121" d="M49.429 28.319c-.575-.776-1.419-1.275-2.377-1.409-.962-.137-1.911.116-2.679.704l-2.505 1.92-3.795 2.834-2.716-1.082c4.843-2.173 8.227-7.017 8.227-12.64 0-7.646-6.245-13.867-13.922-13.867S15.74 11 15.74 18.646c0 2.771.829 5.348 2.24 7.517l-5.528-.048h-.01c-.017 0-.031.009-.047.01-.106.004-.209.026-.31.062-.026.01-.052.015-.077.027-.013.005-.026.006-.038.013l-6.466 3.192c-.001 0-.002 0-.002.001l-3.787 1.821c-.042.018-.084.043-.126.07C.08 32.316-.434 34.289.392 35.902c.441.858 1.19 1.489 2.112 1.778.355.111.718.165 1.078.165.579 0 1.153-.142 1.679-.422l2.776-1.476 4.528-2.338 2.714-.016L4.396 44.424c-.001.001-.002.001-.003.002l-2.677 2.667c-.632.629-.98 1.465-.98 2.355 0 .89.348 1.727.98 2.357.65.646 1.504.971 2.358.971.856 0 1.709-.324 2.361-.971l2.628-2.618 3.482-2.599 1.802 1.794-3.523 3.508c-.001.001-.002.001-.003.002l-2.677 2.667c-.633.629-.98 1.465-.98 2.355 0 .89.348 1.727.98 2.357.65.646 1.505.971 2.36.971s1.71-.324 2.361-.971l6.963-6.933c.001-.001.001-.002.002-.003l2.019-2-.008-.008c.013-.013.031-.017.044-.031L32.217 38.98l6.942.988c.05.008.1.011.15.011.129 0 .254-.031.374-.077.035-.013.066-.03.099-.047.038-.019.079-.03.115-.054l6.427-4.267c.023-.016.036-.042.059-.059.026-.02.058-.029.081-.051l2.543-2.382c1.323-1.24 1.506-3.271.424-4.724zM4.261 35.54c-.347.186-.74.223-1.117.103-.373-.116-.676-.371-.853-.716-.322-.627-.135-1.391.429-1.804l2.627-1.264.898 2.625-1.984 1.055zm6.994-3.655-3.097 1.6-.878-2.567 4.054-2.001-.079 2.968zm30.199-13.241c0 1.837-.438 3.569-1.198 5.119l-8.363-3.798c-.087-1.147-.683-2.15-1.576-2.776l2.928-9.721c4.755 1.513 8.209 5.949 8.209 11.176zm-23.578 0c0-6.47 5.289-11.734 11.789-11.734.506 0 1 .043 1.49.104l-2.864 9.507c-.038-.001-.075-.012-.114-.012-2.065 0-3.745 1.675-3.745 3.733s1.68 3.733 3.745 3.733c1.389 0 2.589-.767 3.236-1.889l7.725 3.509c-2.149 2.893-5.59 4.78-9.473 4.78-6.5 0-11.789-5.264-11.789-11.734zm11.913 1.6c0 .882-.723 1.6-1.612 1.6s-1.612-.718-1.612-1.6c0-.882.723-1.6 1.612-1.6s1.612.718 1.612 1.6zM4.93 50.292c-.473.468-1.237.467-1.709.001-.227-.227-.352-.527-.352-.846 0-.318.125-.618.352-.843l1.924-1.917 1.702 1.695-1.918 1.909zm6.427 7.467c-.473.468-1.238.469-1.71.001-.227-.227-.352-.527-.352-.846 0-.318.125-.618.352-.843l1.925-1.918 1.704 1.695-1.919 1.91zm6.964-6.937c-.001.001-.002.001-.003.002l-3.53 3.52-1.704-1.695 3.526-3.51v-.001c.001-.001.002-.001.003-.002.08-.08.13-.176.179-.271.014-.028.041-.051.052-.08.033-.082.038-.171.051-.257.006-.049.028-.095.028-.145 0-.072-.026-.141-.041-.211-.013-.064-.013-.129-.037-.191-.041-.1-.11-.189-.182-.275-.02-.023-.028-.053-.05-.076h-.001c-.001 0-.001-.003-.002-.004l-3.214-3.2c-.034-.034-.078-.048-.116-.077-.056-.044-.111-.084-.174-.115-.061-.03-.123-.048-.187-.065-.068-.019-.134-.034-.206-.039-.065-.004-.126.002-.191.01-.072.008-.139.018-.208.041-.067.021-.127.054-.189.09-.04.022-.084.03-.122.058l-3.547 2.648-1.802-1.794 4.798-4.772 8.721 8.577-1.855 1.838zm13.637-14.034c-.031-.004-.06.008-.091.005-.078-.004-.152.001-.23.014-.061.011-.118.022-.176.043-.068.023-.13.056-.193.094-.06.036-.114.075-.166.123-.026.022-.056.033-.08.059l-9.397 10.291-8.656-8.513 5.666-5.636c.417-.416.419-1.091.003-1.509-.21-.21-.486-.314-.763-.313v-.001l-4.437.027.056-3.215 6.208.053c2.53 2.588 6.059 4.202 9.963 4.202.875 0 1.728-.091 2.559-.245.08.064.159.129.259.17l4.819 1.92.661 3.287-6.005-.854zm8.083.357-.626-3.116 2.893-2.16 1.893 2.513-4.16 2.763zm7.507-5.662-1.676 1.57-1.862-2.473 1.663-1.275c.31-.239.702-.336 1.086-.286.386.054.727.256.96.569.433.584.359 1.397-.171 1.894z"/><path fill="#212121" d="m27.204 37.088-4.286-4.267c-.415-.415-1.089-.415-1.505 0l-4.285 4.267c-.201.202-.314.472-.314.756s.112.556.314.756l4.285 4.267c.208.207.481.31.753.31s.545-.103.752-.31l4.286-4.267c.201-.2.315-.472.315-.756s-.113-.556-.315-.756zm-5.038 3.518-2.773-2.762 2.773-2.762 2.774 2.762-2.774 2.762zM34.328 10.142l-.515 2.072c.142.035 3.475.903 3.475 4.298h2.133c0-4.034-3.331-5.931-5.093-6.369zM39.422 18.644h-2.133v2.133h2.133v-2.133z"/></symbol><symbol id="icon-brand" viewBox="0 0 86 64"><path d="M6.478 52.746c.332.376.509.847.499 1.33.017.315-.044.63-.178.921s-.338.55-.596.76c-.645.446-1.443.664-2.249.614H0V47.94h3.873c.764-.047 1.523.151 2.146.56.25.192.448.434.579.708s.189.572.173.87c.023.465-.137.922-.45 1.289-.301.335-.716.567-1.179.659.525.088.998.343 1.336.721zM1.84 51.473h1.655c.376.025.75-.074 1.053-.28.124-.103.221-.231.283-.374s.087-.297.073-.45c.012-.153-.014-.305-.074-.448s-.155-.271-.276-.376c-.312-.212-.697-.313-1.084-.284H1.842v2.212zm2.87 3.233c.133-.106.237-.238.305-.386s.097-.309.086-.47c.01-.163-.021-.325-.09-.475s-.176-.283-.31-.39c-.324-.22-.722-.328-1.125-.305H1.84v2.319h1.759c.396.021.788-.082 1.111-.292zM14.394 56.37l-2.155-3.295h-.81v3.295H9.576v-8.431h3.509c.884-.056 1.759.2 2.443.717.49.458.786 1.06.834 1.7s-.155 1.274-.573 1.788c-.433.454-1.024.757-1.673.857l2.294 3.369h-2.015zm-2.964-4.444h1.516c1.053 0 1.579-.426 1.579-1.277.011-.174-.018-.348-.085-.511s-.17-.312-.302-.436c-.333-.253-.761-.376-1.192-.342h-1.534l.018 2.566zM24.524 54.673h-3.693l-.652 1.697h-1.943l3.392-8.336h2.101l3.378 8.336h-1.943l-.639-1.697zm-.494-1.277-1.349-3.559-1.349 3.559h2.699zM37.205 56.37h-1.84l-4.125-5.733v5.733h-1.835v-8.431h1.835l4.125 5.766v-5.766h1.84v8.431zM47.704 54.352c-.38.636-.96 1.154-1.664 1.487-.801.37-1.69.553-2.586.531h-3.275v-8.431h3.275c.895-.021 1.783.157 2.586.519.704.325 1.285.838 1.664 1.47.379.686.576 1.443.576 2.212s-.197 1.526-.576 2.212zm-2.105-.202c.525-.56.814-1.274.814-2.012s-.289-1.452-.814-2.012c-.635-.507-1.462-.765-2.303-.717h-1.277v5.457h1.277c.841.048 1.669-.209 2.303-.717zM25.676 1.044s23.746 8.209 23.242 20.087v20.091S25.19 33.009 25.685 21.131l-.009-20.087zM70.074 36.518c4.485-2.826 9.672-4.576 15.087-5.091v-6.289c-6.239 2.202-11.532 6.194-15.087 11.38z"/><path d="M67.379 38.413c3.671-6.767 10.034-11.99 17.782-14.592V5.699S51.343 17.392 52.058 34.307v28.604s1.507-.523 3.877-1.503c0-.914 0-1.837.108-2.764.7-7.853 4.777-15.13 11.335-20.231z"/><path d="M64.163 49.039c.178-1.984.574-3.946 1.183-5.857-4.084 4.405-6.557 9.871-7.071 15.63-.05.544-.077 1.087-.09 1.648 1.921-.844 4.156-1.899 6.504-3.138-.599-2.725-.776-5.513-.526-8.283zM65.508 49.142c-.225 2.506-.085 5.028.418 7.5 9.239-5.062 19.621-12.883 19.221-22.336v-.824c-6.601.676-12.777 3.318-17.579 7.521-1.124 2.604-1.819 5.347-2.06 8.139z"/></symbol><symbol id="icon-checkbox-checked" viewBox="0 0 68 64"><path fill="#2196f3" style="fill: var(--color1, #2196f3)" d="M8.533 0h51.2c4.713 0 8.533 3.821 8.533 8.533v46.933c0 4.713-3.82 8.533-8.533 8.533h-51.2c-4.713 0-8.533-3.821-8.533-8.533v-46.933c0-4.713 3.821-8.533 8.533-8.533z"></path><path fill="#fff" style="fill: var(--color2, #fff); stroke: var(--color2, #fff)" stroke="#fff" stroke-linejoin="miter" stroke-linecap="butt" stroke-miterlimit="4" stroke-width="0.8533" d="M16.883 33.074l-0.293-0.28-4.409 4.177 15.534 14.819 32.636-31.134-4.38-4.178-28.256 26.93-10.832-10.333z"></path></symbol><symbol id="icon-checkbox" viewBox="0 0 68 64"><path d="M60.681 7.111v49.778h-53.096v-49.778h53.096zM60.681 0h-53.096c-4.172 0-7.585 3.2-7.585 7.111v49.778c0 3.911 3.413 7.111 7.585 7.111h53.096c4.172 0 7.585-3.2 7.585-7.111v-49.778c0-3.911-3.413-7.111-7.585-7.111z"></path></symbol><symbol id="icon-clock" viewBox="0 0 64 64"><path fill="#212121" d="M62.593 30.602C62.589 13.697 48.883-.004 31.977 0S1.371 13.711 1.375 30.616c.003 13.316 8.614 25.102 21.299 29.152.121.038.247.058.374.057.241 0 .478-.065.685-.188.27-.16.472-.414.566-.713l7.73-24.5c2.113-.011 3.817-1.733 3.806-3.846s-1.732-3.817-3.846-3.807c-.568.002-1.129.133-1.64.383L20.137 16.941c-.507-.489-1.314-.475-1.803.031-.478.495-.478 1.278 0 1.772l10.207 10.218c-.783 1.599-.335 3.528 1.073 4.618l-7.365 23.346C7.693 51.564.24 35.418 5.602 20.863S27.11-1.146 41.665 4.216s22.009 21.508 16.647 36.063c-2.62 7.111-8.002 12.862-14.924 15.947l-.796-3.749c-.145-.689-.823-1.129-1.512-.983-.217.046-.419.148-.585.296l-7.674 6.851c-.526.468-.573 1.274-.105 1.801.152.171.348.298.566.368l9.797 3.127c.67.215 1.389-.153 1.604-.824.068-.212.08-.438.034-.655l-.782-3.678c11.329-4.776 18.684-15.884 18.658-28.178zm-30.609-1.275c.704 0 1.275.571 1.275 1.275s-.571 1.275-1.275 1.275c-.705 0-1.275-.571-1.275-1.275s.571-1.275 1.275-1.275zm4.201 29.728 4.368-3.897 1.206 5.681-5.574-1.784z"/><path fill="#2196f3" d="M30.709 6.37v2.551c0 .705.571 1.275 1.275 1.275s1.275-.571 1.275-1.275V6.37c0-.704-.571-1.275-1.275-1.275s-1.275.571-1.275 1.275zM7.752 29.327c-.705 0-1.275.571-1.275 1.275s.571 1.275 1.275 1.275h2.551c.705 0 1.275-.571 1.275-1.275s-.571-1.275-1.275-1.275H7.752zM56.216 31.878c.705 0 1.275-.571 1.275-1.275s-.571-1.275-1.275-1.275h-2.551c-.704 0-1.275.571-1.275 1.275s.571 1.275 1.275 1.275h2.551z"/></symbol><symbol id="icon-company" viewBox="0 0 69 64"><path d="M11.286 62.631c.024.001.048.005.07.014s.042.021.059.037l.332.318c-.258.257-.577.463-.935.603-.419.153-.871.227-1.325.217-.427.008-.851-.061-1.246-.202-.356-.13-.677-.324-.939-.57-.268-.256-.474-.555-.607-.881-.145-.363-.217-.746-.212-1.13-.006-.387.072-.771.229-1.134.145-.328.364-.627.644-.881.284-.249.623-.444.997-.574.409-.138.845-.206 1.284-.202.408-.009.813.054 1.192.184.329.124.631.296.893.509l-.278.339c-.019.024-.043.045-.071.061-.033.02-.073.029-.112.025-.043-.003-.085-.015-.12-.036l-.15-.09-.208-.115c-.09-.043-.183-.08-.278-.112-.123-.038-.25-.069-.378-.09-.163-.026-.329-.038-.494-.036-.316-.004-.63.048-.922.152-.273.096-.519.241-.723.426-.207.197-.367.428-.47.679-.117.287-.175.59-.17.895-.005.31.053.618.17.91.101.249.258.478.461.675.19.183.426.327.69.419.271.098.562.147.856.144.17.002.339-.007.507-.029.274-.029.537-.112.769-.242.116-.067.226-.141.328-.224.043-.035.099-.056.158-.058zM20.883 61.034c.005.383-.071.764-.224 1.123-.135.326-.349.623-.626.872s-.612.444-.982.572c-.813.27-1.713.27-2.526 0-.368-.13-.7-.326-.976-.574-.277-.253-.492-.553-.632-.881-.299-.727-.299-1.522 0-2.249.142-.328.356-.629.632-.885.278-.24.611-.428.976-.552.812-.274 1.713-.274 2.526 0 .369.13.703.326.98.574.273.251.487.547.627.87.154.361.23.745.224 1.13zm-.873 0c.007-.306-.047-.611-.158-.903-.093-.249-.245-.479-.445-.675-.195-.185-.435-.331-.702-.426-.591-.197-1.245-.197-1.836 0-.268.095-.507.24-.702.426-.203.195-.356.425-.449.675-.211.588-.211 1.217 0 1.805.094.25.247.48.449.675.195.184.435.329.702.422.592.192 1.244.192 1.836 0 .267-.094.507-.238.702-.422.199-.197.351-.426.445-.675.111-.291.165-.596.158-.903zM27.431 61.98l.087.202c.033-.072.062-.137.096-.202.032-.068.068-.134.108-.199l2.123-3.353c.042-.058.079-.094.121-.105a.5698.5698 0 0 1 .174-.018h.627v5.454h-.744v-4.18c-.004-.063-.004-.125 0-.188l-2.135 3.4c-.027.051-.071.094-.125.124s-.118.046-.182.046h-.121c-.065.001-.128-.015-.183-.045s-.098-.073-.125-.125l-2.198-3.422v4.378h-.719v-5.443h.627c.059-.003.118.003.174.018.052.022.093.059.116.105l2.169 3.357c.043.062.079.127.108.195zM35.42 61.71v2.043h-.831v-5.447h1.853c.35-.006.699.034 1.035.119.269.066.518.182.731.339.185.148.327.33.416.534.098.222.146.459.141.697.004.239-.049.476-.154.697-.1.209-.253.395-.449.545-.213.164-.464.287-.735.361-.324.09-.662.133-1.001.126l-1.005-.014zm0-.585h1.005c.218.003.436-.025.644-.083.172-.05.33-.13.465-.235.125-.1.222-.223.282-.361.068-.145.102-.301.1-.458.01-.151-.019-.303-.083-.444s-.164-.268-.291-.372c-.317-.215-.716-.32-1.118-.292h-1.005v2.245zM46.587 63.76h-.656c-.066.002-.13-.016-.183-.051-.047-.034-.084-.077-.108-.126l-.565-1.318h-2.838l-.586 1.318c-.022.048-.057.09-.104.123-.053.037-.119.056-.187.054h-.656l2.493-5.455h.864l2.526 5.455zm-4.113-2.025h2.343l-.989-2.22c-.076-.167-.138-.338-.187-.513l-.096.285c-.029.087-.062.166-.091.231l-.981 2.217zM50.177 58.331c.05.024.092.057.125.097l3.635 4.112v-4.234h.744v5.455h-.415c-.059.002-.118-.01-.17-.032-.051-.026-.096-.06-.133-.101l-3.631-4.108c.004.063.004.125 0 .188v4.054h-.744v-5.455h.44c.051-.001.102.007.15.025zM60.805 61.591v2.166h-.831v-2.166l-2.297-3.285h.744c.064-.003.127.013.179.047.045.035.083.077.112.123l1.437 2.119c.058.09.108.173.15.253s.075.155.104.231l.108-.235c.04-.086.088-.169.141-.249l1.417-2.133c.03-.042.066-.081.108-.115.049-.037.113-.057.179-.054h.752l-2.302 3.299zM27.019 49.152c.361.04.727.072 1.097.101C33.722 47.074 38.464 43.508 41.75 39s4.97-9.757 4.841-15.091l-6.178-5.368c1.256 5.68.669 11.551-1.697 16.957S32.3 45.632 27.019 49.152z"/><path d="m24.813 48.903.166.029c5.644-3.508 9.947-8.406 12.353-14.061s2.803-11.807 1.142-17.661l-8.8-7.645c3.559 6.284 4.992 13.317 4.131 20.281s-3.979 13.572-8.992 19.057zM54.656 30.212c-1.495 5.861-5.126 11.148-10.353 15.074-1.527 1.153-3.173 2.18-4.919 3.068 4.257-1.087 8.169-3.009 11.436-5.617s5.8-5.834 7.405-9.428l-3.569-3.097z"/><path d="m53.256 29.349-5.081-4.415c-.097 5.033-1.744 9.952-4.77 14.245s-7.319 7.804-12.435 10.167h.025c1.14 0 2.279-.059 3.411-.177 4.781-1.695 9.004-4.393 12.293-7.851s5.541-7.571 6.556-11.97zM25.549 6.34l-6.062-5.274C14.068 2.885 9.408 6.084 6.116 10.243s-5.062 9.084-5.079 14.132c.02 5.577 2.181 10.989 6.14 15.38s9.49 7.508 15.718 8.86c5.559-5.885 8.815-13.157 9.292-20.759S30.34 12.717 25.55 6.341zM67.261 28.537c-.022-6.617-3.057-12.958-8.443-17.637S46.135 3.584 38.519 3.565C35 3.562 31.51 4.126 28.228 5.229l37.113 32.245c1.271-2.85 1.921-5.881 1.919-8.938z"/></symbol><symbol id="icon-diagram" viewBox="0 0 64 64"><path fill="#2196f3" d="M29.851 29.929h2.132v9.595h-2.132v-9.595zM38.38 34.194h2.132v5.331H38.38v-5.331zM21.322 37.392h2.132v2.132h-2.132v-2.132zM14.926 36.326h2.132v3.198h-2.132v-3.198z"/><path fill="#212121" d="M3.198 56.582h51.173c1.766 0 3.198-1.432 3.198-3.198V49.12c0-1.766-1.432-3.198-3.198-3.198h-1.066V19.335l6.056-5.737c1.406.693 3.107.272 4.026-.997s.791-3.017-.305-4.137-2.84-1.287-4.13-.396c-1.289.892-1.747 2.584-1.085 4.004l-4.563 4.325v-2.46c0-1.766-1.432-3.198-3.198-3.198H7.462c-1.766 0-3.198 1.432-3.198 3.198V45.92H3.198C1.432 45.92 0 47.352 0 49.118v4.264c0 1.766 1.432 3.198 3.198 3.198zm57.57-46.909c.589 0 1.066.477 1.066 1.066s-.477 1.066-1.066 1.066c-.589 0-1.066-.477-1.066-1.066s.477-1.066 1.066-1.066zM6.397 13.938c0-.589.477-1.066 1.066-1.066h42.644c.589 0 1.066.477 1.066 1.066v4.477l-2.132 2.026V16.07c0-.589-.477-1.066-1.066-1.066H9.595c-.589 0-1.066.477-1.066 1.066v26.653c0 .589.477 1.066 1.066 1.066h38.38c.589 0 1.066-.477 1.066-1.066V23.374l2.132-2.02v24.567H6.396V13.938zm9.595 13.859c-1.442-.004-2.709.957-3.093 2.347s.21 2.865 1.451 3.601c1.24.736 2.82.551 3.856-.452l3.706 1.859c.431.215.953.114 1.273-.245l7.878-8.863 7.744 5.803c.415.311.995.278 1.372-.079l6.73-6.375v16.262H10.661v-24.52h36.248v5.321l-7.543 7.143-7.809-5.854c-.444-.332-1.068-.27-1.436.144l-7.986 8.985-2.985-1.493c.022-.128.035-.257.041-.387 0-1.766-1.432-3.198-3.198-3.198zm1.066 3.198c0 .589-.477 1.066-1.066 1.066s-1.066-.477-1.066-1.066c0-.589.477-1.066 1.066-1.066s1.066.477 1.066 1.066zm6.396 17.058h10.661v1.066c0 .589-.477 1.066-1.066 1.066H24.52c-.589 0-1.066-.477-1.066-1.066v-1.066zM2.132 49.119c0-.589.477-1.066 1.066-1.066h18.124v1.066c0 1.766 1.432 3.198 3.198 3.198h8.529c1.766 0 3.198-1.432 3.198-3.198v-1.066h18.124c.589 0 1.066.477 1.066 1.066v4.264c0 .589-.477 1.066-1.066 1.066H3.198c-.589 0-1.066-.477-1.066-1.066v-4.264z"/></symbol><symbol id="icon-facebook" viewBox="0 0 64 64"><path d="M42.659 10.627h5.843V.451C47.494.312 44.027 0 39.99 0c-8.424 0-14.195 5.299-14.195 15.037V24h-9.296v11.376h9.296V64h11.397V35.379h8.92l1.416-11.376H37.189v-7.837c.003-3.288.888-5.539 5.469-5.539z"/></symbol><symbol id="icon-feature1" viewBox="0 0 60 64"><path fill="#212121" d="m59.718 44.195-16.886-17.01 1.874-9.231c.484.189.998.287 1.517.291h.013c2.385.028 4.34-1.882 4.369-4.267s-1.882-4.34-4.267-4.369c-2.385-.028-4.34 1.882-4.369 4.266-.006.51.078 1.018.249 1.498l-9.92 1.211L16.117.318c-.198-.203-.47-.318-.753-.32-.28.001-.548.113-.747.31l-3.025 3.008c-.416.417-.416 1.092 0 1.508l1.628 1.651c-6.306 11.596-4.258 25.956 5.039 35.326.085.082.184.148.292.195-.067.361-.102.727-.105 1.094v12.373h-12.8c-2.944.004-5.33 2.389-5.333 5.333v2.133c0 .589.478 1.067 1.067 1.067h49.067c.589 0 1.067-.478 1.067-1.067v-2.133c-.004-2.944-2.389-5.33-5.333-5.333h-12.8v-5.484c2.005.421 4.048.635 6.097.64 4.916-.005 9.754-1.231 14.08-3.567l1.636 1.646c.199.203.469.318.753.32.28-.001.548-.113.747-.31l3.025-3.008c.416-.417.416-1.092 0-1.508zM44.731 12.466c.835-.831 2.186-.827 3.017.008s.827 2.186-.008 3.017c-.4.398-.941.621-1.505.621h-.006c-1.178-.006-2.128-.966-2.122-2.144.003-.564.229-1.104.629-1.502h-.004zm-2.511 7.009-1.197 5.891-2.351-2.365 3.548-3.526zm-1.212-1.803-3.84 3.818-2.971-2.987 6.811-.831zM46.18 57.6c1.767 0 3.2 1.433 3.2 3.2v1.067H2.447V60.8c0-1.767 1.433-3.2 3.2-3.2H46.18zm-14.934-4.267v2.133H20.579v-2.133h10.667zM20.58 51.2v-8.107c0-2.588 2.392-4.693 5.333-4.693s5.333 2.106 5.333 4.693V51.2H20.579zm12.8-3.392v-4.715c0-3.764-3.349-6.827-7.467-6.827-2.662-.041-5.151 1.314-6.562 3.572-8.116-8.548-9.943-21.29-4.557-31.774l37.204 37.417c-5.745 2.922-12.33 3.745-18.618 2.326zm22.578-1.367L13.844 4.079l1.509-1.504 15.87 15.96c.007 0 .012.014.019.019l26.229 26.383-1.514 1.504z"/><path fill="#2196f3" d="M25.923 40.533h-.01c-1.767-.003-3.202 1.428-3.205 3.195s1.428 3.202 3.195 3.205h.01c1.767.003 3.202-1.428 3.205-3.195s-1.428-3.202-3.195-3.205zm.746 3.957c-.201.2-.473.312-.756.31-.589-.003-1.064-.483-1.061-1.072.002-.282.115-.552.314-.751.199-.197.467-.309.747-.31.589.003 1.064.483 1.061 1.072-.001.282-.114.552-.314.751h.01z"/></symbol><symbol id="icon-foster" viewBox="0 0 130 64"><path d="M20.032 19.966h-.004c-3.654 0-6.616 2.633-6.616 5.88v.004c0 3.247 2.962 5.88 6.616 5.88h.004c3.654 0 6.616-2.633 6.616-5.88v-.004c0-3.247-2.962-5.88-6.616-5.88zM68.869 18.087c-.01-4.511-2.031-8.834-5.619-12.023s-8.453-4.986-13.528-4.997c-5.077.008-9.943 1.804-13.533 4.994s-5.612 7.514-5.622 12.026V42.96s38.299-3.791 38.303-24.869v-.004zM0 51.123c.009 3.138 1.416 6.146 3.913 8.366s5.88 3.471 9.412 3.48c3.531-.009 6.914-1.26 9.41-3.479s3.904-5.225 3.914-8.363V33.82S0 36.46 0 51.123zm13.324 3.101c-.69 0-1.365-.182-1.938-.523s-1.021-.825-1.285-1.392-.333-1.19-.199-1.792.467-1.154.955-1.588 1.11-.729 1.787-.849c.677-.12 1.378-.058 2.016.176s1.183.632 1.566 1.142c.383.51.588 1.109.588 1.723.002.408-.087.813-.262 1.19s-.431.721-.755 1.01c-.324.289-.71.519-1.134.675s-.879.237-1.338.237v-.012zM40.256 52.516h-2.571v2.656h-1.339v-6.5h4.232v1.085h-2.893v1.679h2.571v1.08zm6.437-.446c0 .64-.113 1.201-.339 1.683s-.551.854-.973 1.116c-.419.262-.902.393-1.446.393-.539 0-1.019-.13-1.442-.388s-.75-.628-.982-1.107c-.232-.482-.35-1.036-.353-1.661v-.321c0-.64.115-1.202.344-1.687.232-.488.558-.862.978-1.121.423-.262.905-.393 1.447-.393s1.022.131 1.442.393c.423.259.748.632.978 1.121.232.485.348 1.046.348 1.683v.29zm-1.357-.295c0-.681-.122-1.199-.366-1.553s-.592-.531-1.045-.531c-.45 0-.796.176-1.04.527-.244.348-.368.86-.37 1.536v.317c0 .664.122 1.178.366 1.545s.595.549 1.054.549c.449 0 .795-.176 1.036-.527.241-.354.363-.869.366-1.545v-.317zm5.701 1.692c0-.253-.089-.447-.268-.58-.179-.137-.5-.28-.964-.428-.464-.152-.832-.301-1.103-.447-.738-.399-1.107-.936-1.107-1.612 0-.351.098-.664.295-.938.199-.277.484-.492.853-.647.372-.155.789-.232 1.25-.232.464 0 .878.085 1.241.255.363.167.644.403.844.71.202.307.304.655.304 1.045h-1.339c0-.298-.094-.528-.281-.692-.187-.167-.451-.25-.79-.25-.327 0-.582.07-.763.21-.182.137-.272.319-.272.545 0 .211.106.388.317.531.214.143.528.277.942.402.762.229 1.317.513 1.665.853s.522.762.522 1.268c0 .562-.213 1.005-.639 1.326-.425.319-.998.478-1.719.478-.5 0-.955-.091-1.366-.272-.411-.185-.725-.436-.942-.754-.214-.319-.322-.688-.322-1.107h1.344c0 .717.428 1.076 1.286 1.076.319 0 .567-.064.746-.192.179-.131.268-.313.268-.545zm7.147-3.71h-1.991v5.415h-1.339v-5.415H52.89v-1.085h5.295v1.085zm4.679 2.598h-2.571v1.741h3.018v1.076h-4.357v-6.5h4.348v1.085h-3.009v1.549h2.571v1.049zm3.638.438h-1.067v2.379h-1.339v-6.5h2.415c.768 0 1.36.171 1.777.513s.625.826.625 1.451c0 .444-.097.814-.29 1.112-.191.295-.481.53-.871.705l1.406 2.656v.063h-1.438L66.5 52.793zm-1.067-1.085h1.08c.336 0 .597-.085.781-.255.185-.173.277-.409.277-.71 0-.307-.088-.548-.263-.723-.173-.176-.439-.263-.799-.263h-1.076v1.951zm8.116 1.174v2.29h-1.339v-6.5h2.536c.488 0 .917.089 1.286.268.372.179.658.433.857.763.199.327.299.701.299 1.121 0 .637-.219 1.14-.656 1.509-.435.366-1.037.549-1.808.549h-1.174zm0-1.085h1.196c.354 0 .624-.083.808-.25.187-.167.281-.405.281-.714 0-.319-.094-.576-.281-.772s-.447-.298-.777-.304h-1.228v2.04zm8.473.558h-2.571v1.741h3.018v1.076h-4.357v-6.5h4.348v1.085h-3.009v1.549h2.571v1.049zm6.215-2.598h-1.991v5.415h-1.339v-5.415h-1.964v-1.085h5.295v1.085zm4.678 2.598h-2.571v1.741h3.018v1.076h-4.357v-6.5h4.348v1.085h-3.009v1.549h2.571v1.049zm3.639.438h-1.067v2.379h-1.339v-6.5h2.415c.768 0 1.36.171 1.777.513s.625.826.625 1.451c0 .444-.097.814-.29 1.112-.191.295-.481.53-.871.705l1.406 2.656v.063h-1.437l-1.219-2.379zm-1.067-1.085h1.08c.336 0 .597-.085.781-.255.185-.173.277-.409.277-.71 0-.307-.088-.548-.263-.723-.173-.176-.439-.263-.799-.263h-1.076v1.951zm7.87 1.759c0-.253-.089-.447-.268-.58-.179-.137-.5-.28-.964-.428-.464-.152-.832-.301-1.103-.447-.738-.399-1.107-.936-1.107-1.612 0-.351.098-.664.295-.938.199-.277.484-.492.853-.647.372-.155.789-.232 1.25-.232.464 0 .878.085 1.241.255.363.167.644.403.844.71.202.307.304.655.304 1.045h-1.339c0-.298-.094-.528-.281-.692-.188-.167-.451-.25-.79-.25-.327 0-.582.07-.763.21-.181.137-.272.319-.272.545 0 .211.106.388.317.531.214.143.528.277.942.402.762.229 1.317.513 1.665.853s.522.762.522 1.268c0 .562-.213 1.005-.638 1.326-.426.319-.999.478-1.719.478-.5 0-.955-.091-1.366-.272-.411-.185-.725-.436-.942-.754-.214-.319-.321-.688-.321-1.107h1.344c0 .717.429 1.076 1.286 1.076.318 0 .567-.064.745-.192.179-.131.268-.313.268-.545z"/></symbol><symbol id="icon-instagram" viewBox="0 0 64 64"><path d="M63.937 18.816c-.15-3.401-.7-5.738-1.487-7.764-.813-2.15-2.063-4.075-3.701-5.676-1.6-1.625-3.538-2.888-5.664-3.688C51.048.9 48.722.35 45.321.2 41.895.037 40.807 0 32.118 0s-9.777.038-13.19.188c-3.401.15-5.738.7-7.764 1.488-2.151.813-4.076 2.063-5.676 3.701C3.863 6.977 2.6 8.915 1.8 11.041 1.012 13.079.462 15.404.312 18.805c-.163 3.426-.2 4.514-.2 13.203S.15 41.785.3 45.198c.15 3.4.7 5.738 1.488 7.764.813 2.15 2.075 4.075 3.7 5.676 1.6 1.625 3.538 2.888 5.664 3.688 2.038.788 4.363 1.338 7.764 1.487 3.413.15 4.501.188 13.19.188s9.777-.037 13.19-.188c3.401-.15 5.738-.7 7.764-1.487 4.301-1.663 7.702-5.064 9.365-9.364.787-2.038 1.338-4.364 1.488-7.764.15-3.413.188-4.501.188-13.19s-.013-9.777-.163-13.19zm-5.763 26.13c-.138 3.126-.663 4.813-1.1 5.939-1.075 2.788-3.288 5.001-6.077 6.077-1.125.438-2.825.963-5.939 1.1-3.376.15-4.388.188-12.927.188s-9.564-.037-12.928-.188c-3.126-.137-4.813-.662-5.939-1.1-1.387-.513-2.65-1.325-3.675-2.388-1.063-1.038-1.875-2.288-2.388-3.675-.438-1.125-.963-2.826-1.1-5.939-.15-3.376-.188-4.389-.188-12.928s.037-9.564.188-12.927c.137-3.126.662-4.813 1.1-5.939.513-1.388 1.325-2.65 2.401-3.676 1.037-1.063 2.288-1.875 3.675-2.388 1.125-.438 2.826-.963 5.939-1.1 3.376-.15 4.389-.188 12.927-.188 8.552 0 9.564.038 12.928.188 3.126.138 4.813.663 5.939 1.1 1.387.512 2.65 1.325 3.675 2.388 1.062 1.038 1.875 2.288 2.388 3.676.437 1.125.963 2.825 1.1 5.939.15 3.376.188 4.388.188 12.927s-.037 9.54-.188 12.915z"/><path d="M32.119 15.565c-9.076 0-16.441 7.364-16.441 16.441s7.364 16.441 16.441 16.441c9.077 0 16.441-7.364 16.441-16.441s-7.364-16.441-16.441-16.441zm0 27.106c-5.888 0-10.665-4.776-10.665-10.665s4.776-10.665 10.665-10.665c5.889 0 10.665 4.776 10.665 10.665s-4.776 10.665-10.665 10.665zM53.048 14.915c0 2.12-1.719 3.838-3.839 3.838s-3.838-1.719-3.838-3.838c0-2.12 1.718-3.838 3.838-3.838s3.839 1.718 3.839 3.838z"/></symbol><symbol id="icon-linkedin" viewBox="0 0 64 64"><path d="M63.984 64v-.003H64V40.525c0-11.483-2.472-20.328-15.896-20.328-6.453 0-10.784 3.541-12.552 6.899h-.187v-5.827H22.637v42.728H35.89V42.84c0-5.571 1.056-10.957 7.955-10.957 6.797 0 6.899 6.357 6.899 11.315v20.803h13.24zM1.056 21.272h13.269V64H1.056V21.272zM7.685 0C3.442 0 0 3.443 0 7.685s3.443 7.757 7.685 7.757c4.243 0 7.685-3.515 7.685-7.757C15.367 3.442 11.925 0 7.685 0z"/></symbol><symbol id="icon-send" viewBox="0 0 64 64"><path d="M64 0l-64 36 20.453 7.575 31.547-29.575-23.995 32.372 0.019 0.007-0.024-0.007v17.628l11.47-13.382 14.53 5.382 10-56z"></path></symbol><symbol id="icon-modal-email" viewBox="0 0 85 64"><path d="M74.667 0h-64c-4.4 0-7.96 3.6-7.96 8l-0.040 48c0 4.4 3.6 8 8 8h64c4.4 0 8-3.6 8-8v-48c0-4.4-3.6-8-8-8zM73.067 17l-28.28 17.68c-1.28 0.8-2.96 0.8-4.24 0l-28.28-17.68c-1-0.64-1.6-1.72-1.6-2.88 0-2.68 2.92-4.28 5.2-2.88l26.8 16.76 26.8-16.76c2.28-1.4 5.2 0.2 5.2 2.88 0 1.16-0.6 2.24-1.6 2.88z"></path></symbol><symbol id="icon-modal-tel" viewBox="0 0 64 64"><path d="M54.839 41.703l-8.403-0.959c-2.018-0.232-4.003 0.463-5.426 1.886l-6.087 6.087c-9.362-4.764-17.037-12.406-21.801-21.802l6.12-6.12c1.423-1.423 2.117-3.407 1.886-5.425l-0.959-8.337c-0.397-3.341-3.209-5.856-6.583-5.856h-5.723c-3.738 0-6.848 3.11-6.617 6.848 1.753 28.253 24.349 50.815 52.568 52.568 3.738 0.231 6.848-2.878 6.848-6.617v-5.723c0.033-3.342-2.481-6.154-5.823-6.551z"></path></symbol><symbol id="icon-modal-name" viewBox="0 0 64 64"><path d="M32 32c8.84 0 16-7.16 16-16s-7.16-16-16-16c-8.84 0-16 7.16-16 16s7.16 16 16 16zM32 40c-10.68 0-32 5.36-32 16v4c0 2.2 1.8 4 4 4h56c2.2 0 4-1.8 4-4v-4c0-10.64-21.32-16-32-16z"></path></symbol><symbol id="icon-modal-close" viewBox="0 0 64 64"><path d="M64 6.446l-6.446-6.446-25.554 25.554-25.554-25.554-6.446 6.446 25.554 25.554-25.554 25.554 6.446 6.446 25.554-25.554 25.554 25.554 6.446-6.446-25.554-25.554 25.554-25.554z"></path></symbol><symbol id="icon-mail" viewBox="0 0 85 64"><path d="M77.333 0H8C3.588 0 0 3.589 0 8v48c0 4.411 3.589 8 8 8h69.333c4.411 0 8-3.589 8-8V8c0-4.412-3.589-8-8-8zm0 5.333c.362 0 .707.075 1.022.206L42.666 36.471 6.977 5.539c.315-.131.66-.206 1.022-.206h69.333zm0 53.334H8c-1.471 0-2.667-1.195-2.667-2.667V11.174l35.586 30.841c.503.435 1.125.651 1.747.651s1.245-.216 1.747-.651l35.586-30.841V56c0 1.471-1.195 2.667-2.667 2.667z"/></symbol><symbol id="icon-smartphone" viewBox="0 0 40 64"><path d="M34 0H6C2.691 0 0 2.691 0 6v52c0 3.309 2.691 6 6 6h28c3.309 0 6-2.691 6-6V6c0-3.309-2.691-6-6-6zM6 4h28c1.103 0 2 .896 2 2v42H4V6c0-1.104.896-2 2-2zm28 56H6c-1.104 0-2-.896-2-2v-6h32v6c0 1.104-.897 2-2 2z"/><path d="M9.414 54.956c.781.73.781 1.912 0 2.641s-2.047.73-2.828 0c-.781-.729-.781-1.912 0-2.641s2.047-.729 2.828 0z"/></symbol><symbol id="icon-tagline-com2" viewBox="0 0 134 64"><path d="M67.449 30.447c-.63-.839-.932-1.83-.86-2.828v-4.101c0-1.257.285-2.212.855-2.866s1.549-.979 2.938-.976c1.305 0 2.231.278 2.778.834.597.71.888 1.578.821 2.453v.964h-2.334v-.976c.008-.319-.014-.639-.068-.955-.034-.216-.151-.416-.333-.567-.24-.163-.541-.242-.846-.221-.32-.021-.637.063-.889.234-.203.167-.339.387-.387.626-.067.335-.098.674-.092 1.014v4.977c-.037.48.066.961.299 1.398.116.148.277.265.466.339s.397.101.602.078c.299.021.596-.06.826-.225.19-.163.312-.376.348-.605.055-.33.079-.663.073-.997v-1.009h2.334v.922c.066.913-.218 1.818-.807 2.578-.536.609-1.45.914-2.793.914s-2.358-.325-2.933-1.001zM77.165 30.489c-.59-.638-.884-1.569-.884-2.799v-4.313c0-1.218.295-2.14.884-2.766s1.575-.937 2.957-.934c1.372 0 2.353.311 2.942.934.59.626.889 1.548.889 2.766v4.313c0 1.218-.299 2.152-.899 2.795s-1.575.964-2.933.964c-1.358 0-2.363-.325-2.957-.959zm4.044-1.035c.211-.4.307-.838.28-1.276v-5.281c.027-.43-.068-.86-.275-1.251-.118-.151-.284-.27-.477-.344s-.406-.099-.615-.073c-.21-.025-.423 0-.617.074s-.36.192-.48.343c-.213.391-.309.821-.28 1.251v5.306c-.029.439.067.877.28 1.276.136.135.304.242.492.316s.393.112.6.112c.207 0 .411-.038.6-.112s.356-.182.492-.316v-.025zM86.761 19.802h2.513l1.889 7.958 1.933-7.958h2.445l.246 11.487H93.98l-.193-7.983-1.865 7.983h-1.45l-1.933-8.012-.179 8.012h-1.826l.227-11.487zM98.603 19.802h3.913c2.255 0 3.382 1.087 3.382 3.262 0 2.083-1.187 3.123-3.561 3.12h-1.334v5.105h-2.416l.014-11.487zm3.343 4.91c.239.026.481.007.71-.055s.44-.168.618-.307c.277-.388.399-.844.348-1.297.013-.35-.026-.701-.116-1.043-.034-.114-.095-.221-.178-.315s-.187-.172-.305-.231c-.335-.139-.706-.202-1.077-.183h-.937v3.433h.937zM109.382 19.802h2.595l2.662 11.487h-2.251l-.527-2.649h-2.314l-.541 2.649h-2.285l2.662-11.487zm2.218 7.508-.904-4.822-.903 4.822h1.807zM116.789 19.802h1.691l3.237 6.553v-6.553h2.005v11.487h-1.609l-3.256-6.84v6.84h-2.073l.005-11.487zM128.419 26.91l-2.691-7.091h2.266l1.643 4.555 1.541-4.555h2.218l-2.657 7.091v4.38h-2.319v-4.38zM71.179 36.312v.601h-1.971v4.668h-.826v-4.668h-1.981v-.601h4.778zM77.359 41.58h-.638c-.065.003-.129-.014-.179-.05-.048-.031-.085-.073-.106-.121l-.57-1.251h-2.735l-.57 1.251c-.016.052-.046.101-.087.142-.05.035-.114.053-.179.05h-.638l2.416-5.268h.841l2.445 5.247zm-4.001-1.956h2.281l-.966-2.144c-.071-.162-.131-.328-.179-.496-.034.1-.063.196-.092.279l-.087.221-.957 2.14zM81.523 41.063c.151.007.303.007.454 0 .131-.012.26-.033.387-.063.118-.025.235-.057.348-.096.106-.038.213-.084.324-.129V39.59h-.966c-.024.001-.048-.002-.07-.009s-.043-.018-.06-.033c-.016-.012-.028-.027-.037-.043s-.012-.035-.011-.053v-.405h1.875v2.019c-.153.094-.315.178-.483.25-.172.073-.352.133-.536.179-.198.05-.4.087-.604.108-.234.023-.47.034-.705.033-.417.003-.83-.063-1.218-.196-.362-.126-.69-.313-.966-.551-.269-.24-.481-.524-.623-.834-.152-.349-.228-.72-.222-1.093-.005-.375.069-.749.217-1.101.139-.312.351-.596.623-.834.276-.237.605-.423.966-.547.414-.134.853-.201 1.295-.196.225 0 .45.015.672.046.196.028.389.072.575.134.169.055.331.125.483.209.148.082.289.174.42.275l-.232.325c-.018.03-.045.055-.078.072s-.071.027-.11.028c-.053-.001-.105-.016-.15-.042-.073-.033-.15-.075-.237-.125-.103-.056-.211-.103-.324-.142-.144-.05-.293-.089-.444-.117-.202-.032-.408-.047-.614-.046-.319-.003-.635.047-.932.146-.269.093-.511.236-.71.417-.2.189-.353.412-.449.655-.216.57-.216 1.186 0 1.756.106.248.27.474.483.663.198.181.439.323.705.417.307.091.633.127.957.104zM89.225 40.979h2.638v.601h-3.445v-5.268h.826l-.019 4.668zM94.607 41.58h-.826v-5.268h.826v5.268zM97.68 36.337c.049.024.092.057.126.096l3.532 3.971c-.005-.062-.005-.125 0-.188v-3.925h.72v5.29h-.415c-.062.004-.123-.006-.179-.029-.05-.026-.094-.06-.131-.1l-3.527-3.967v4.096h-.691v-5.269h.43c.047 0 .093.009.135.025zM108.141 36.312v.58h-2.928v1.739h2.372v.559h-2.372v1.798h2.928v.58h-3.778v-5.256h3.778zM21.563 3.777l36.686 8.993v31.514l-36.686-8.989V3.777zM19.21 1.09v35.735l41.388 10.149V11.243L19.21 1.09z"/><path d="M41.392 63.562 0 53.405V17.674l41.392 10.153v35.735z"/><path d="m19.896 3.372 36.208 8.88L40.706 25.55 4.493 16.665 19.896 3.372zM19.21 1.09 0 17.674l41.392 10.153 19.206-16.584L19.211 1.09zM43.721 61.552l16.877-14.574-16.877-4.142v18.716z"/></symbol><symbol id="icon-tagline-comp" viewBox="0 0 49 64"><path d="M21.063 3.612h-.168c-.258-.016-.517-.022-.775-.028h-.56c-.489 0-.987.013-1.482.038a.69801.69801 0 0 0-.112 0c-4.485.254-8.88 1.375-12.943 3.302l-.532.257v27.251l1.245-.422c1.093-.376 2.257-.714 3.462-1.027 3.257-.836 6.602-1.281 9.963-1.324v3.58c-.445.003-.878.016-1.311.038h-.103c-2.587.142-5.154.536-7.665 1.177-3.18.796-6.249 1.992-9.132 3.559V5.063c2.995-1.747 6.22-3.058 9.58-3.897C13.48.404 16.513.013 19.559.002h.526c.629.016 1.242.044 1.818.088 1.518.107 3.023.346 4.499.717v3.524c-1.433-.334-2.891-.554-4.359-.657-.03-.002-.06-.005-.089-.008-.304-.026-.608-.052-.891-.052zm6.202 3.602c.781.059 1.591.088 2.41.088 3.202-.012 6.391-.421 9.493-1.218 3.179-.799 6.246-1.996 9.129-3.562v34.327c-2.996 1.746-6.222 3.057-9.583 3.897-2.951.759-5.983 1.149-9.029 1.161-2.308.019-4.609-.253-6.85-.807V6.551c.529.122 1.074.235 1.628.329.909.153 1.868.266 2.802.335zm17.47.266-1.245.419c-1.146.385-2.301.729-3.462 1.036-3.381.869-6.856 1.315-10.346 1.327-.813 0-1.56-.022-2.282-.069l-.993-.066V38.16l.853.075c.791.069 1.607.103 2.429.103 2.749-.012 5.486-.366 8.148-1.055 2.192-.55 4.325-1.316 6.367-2.288l.532-.257V7.478zM3.369 51.954c-.179-.186-.395-.332-.634-.428s-.495-.142-.752-.132c-.274-.004-.546.047-.8.15-.233.093-.445.232-.623.41-.176.178-.313.391-.402.626-.098.246-.146.508-.143.773v4.67c-.011.329.052.656.184.958.11.239.269.453.467.626.187.157.406.27.641.332.227.064.462.096.697.097.26.003.517-.053.753-.163.233-.102.445-.249.623-.432.173-.181.312-.394.408-.626.1-.235.151-.489.149-.745v-.523h-1.22v.416c.004.142-.021.284-.072.416-.04.099-.1.189-.178.263-.076.061-.162.107-.255.135-.082.027-.168.042-.255.044-.109.013-.219-.004-.32-.048s-.188-.114-.253-.203c-.115-.188-.171-.406-.162-.626V53.59c-.008-.241.044-.481.149-.698.063-.099.153-.177.259-.227s.223-.069.339-.055c.105-.004.21.018.305.064s.177.114.24.199c.137.179.208.4.202.626v.404h1.208v-.476c.002-.279-.048-.557-.149-.817-.09-.245-.229-.468-.408-.657zM10.62 51.9c-.389-.329-.88-.51-1.389-.513-.249.001-.495.046-.729.131-.237.085-.456.215-.644.382-.202.182-.364.405-.473.654-.123.285-.183.594-.177.904v4.479c-.008.315.052.628.177.917.11.241.272.454.473.626.187.173.406.307.644.394.233.086.48.13.729.131.249-.001.495-.045.729-.131.243-.088.467-.222.66-.394.195-.175.352-.388.461-.626.125-.289.186-.602.177-.917v-4.479c.006-.311-.055-.619-.177-.904-.109-.247-.265-.469-.461-.654zm-.57 6.038c.01.119-.006.239-.048.352s-.109.213-.195.296c-.161.135-.364.209-.574.209s-.413-.074-.574-.209c-.086-.083-.153-.184-.195-.296s-.059-.232-.048-.352v-4.479c-.01-.119.006-.239.048-.352s.109-.213.195-.296c.161-.135.364-.209.574-.209s.413.074.574.209c.086.083.153.184.195.296s.059.232.048.352v4.479zM20.144 59.938V51.46H18.97l-1.541 4.488h-.022l-1.554-4.488h-1.161v8.478h1.211V54.78h.022l1.186 3.646h.604l1.196-3.646h.022v5.158h1.211zM27.025 52.054c-.187-.209-.422-.368-.685-.463-.283-.092-.58-.137-.878-.131h-1.799v8.478h1.208v-3.311h.623c.377.017.752-.063 1.09-.232.275-.153.504-.376.663-.648.14-.225.234-.477.277-.739.047-.319.069-.642.065-.964.012-.407-.028-.814-.118-1.211-.081-.293-.234-.562-.445-.779zm-.622 2.585c-.005.154-.043.304-.112.441-.069.13-.178.235-.311.297-.179.08-.374.117-.57.106h-.551v-2.882h.623c.188-.009.374.027.545.106.125.072.224.181.283.313.066.149.102.31.106.473v.563c0 .197.012.401 0 .582h-.012zM32.748 51.459h-.99l-1.868 8.478h1.208l.355-1.822H33.1l.355 1.822h1.208l-1.915-8.478zm-1.115 5.502.595-3.073h.022l.592 3.073h-1.208zM40.553 56.567h-.022l-1.825-5.108h-1.161v8.478h1.208v-5.098h.025l1.846 5.098h1.136v-8.478h-1.208v5.108zM47.935 51.459l-.971 3.371h-.025l-.971-3.371h-1.28l1.659 4.895v3.584h1.208v-3.584l1.659-4.895h-1.28zM0 62.332h.582v1.634h.395v-1.634h.579v-.335H-.001v.335zM4.894 61.997l-.763 1.969h.42l.162-.447h.785l.168.447h.43l-.782-1.969h-.42zm-.062 1.189.268-.729.268.729h-.535zM9.733 63.239h.455v.254c-.133.106-.297.165-.467.166-.079.004-.159-.01-.231-.043s-.136-.082-.186-.145c-.104-.15-.156-.331-.146-.513 0-.438.19-.657.567-.657.099-.01.199.016.28.074s.14.142.165.239l.389-.075c-.084-.385-.361-.579-.834-.579-.253-.007-.499.084-.688.254-.099.098-.176.216-.225.347s-.069.271-.059.41c-.011.269.079.533.252.739.096.099.213.177.342.226s.267.071.405.062c.308.009.607-.104.834-.313v-.776h-.853v.332zM14.674 61.997h-.399v1.969h1.379v-.335h-.981v-1.634zM18.852 61.997h-.398v1.969h.398v-1.969zM22.937 63.311l-.806-1.315h-.386v1.969h.37v-1.286l.791 1.286h.395v-1.969h-.364v1.315zM26.63 63.098h.981v-.335h-.981v-.432h1.055v-.335h-1.454v1.969h1.494v-.335h-1.096v-.532zM35.584 62.773h-.775v-.776h-.395v1.969h.395v-.861h.775v.861h.395v-1.969h-.395v.776zM39.299 63.098h.984v-.335h-.984v-.432h1.059v-.335h-1.454v1.969h1.491v-.335h-1.096v-.532zM44.336 63.099c.342-.053.517-.235.517-.548.01-.084-.003-.169-.037-.246s-.088-.144-.156-.193c-.178-.09-.377-.13-.576-.116h-.834v1.969h.395v-.823h.078c.084-.005.169.01.246.044.058.036.106.085.14.144l.43.626h.473l-.24-.385c-.106-.19-.255-.352-.436-.473zm-.398-.273h-.293v-.495h.311c.136-.011.272.005.402.047.029.026.051.057.066.093s.022.074.02.112c-.002.038-.012.076-.03.11s-.044.063-.075.086c-.13.04-.266.056-.402.047zM48.135 63.098h.981v-.335h-.981v-.432h1.059v-.335h-1.457v1.969h1.494v-.335h-1.096v-.532z"/></symbol><symbol id="icon-twitter" viewBox="0 0 64 64"><path d="M64 12.156c-2.38 1.044-4.916 1.736-7.56 2.072 2.72-1.624 4.796-4.176 5.772-7.252-2.536 1.512-5.336 2.58-8.32 3.176C51.484 7.588 48.052 6 44.308 6c-7.264 0-13.112 5.896-13.112 13.124 0 1.04.088 2.04.304 2.992-10.908-.532-20.56-5.76-27.044-13.724-1.132 1.964-1.796 4.212-1.796 6.632 0 4.544 2.34 8.572 5.828 10.904-2.108-.04-4.176-.652-5.928-1.616v.144c0 6.376 4.548 11.672 10.512 12.892-1.068.292-2.232.432-3.44.432-.84 0-1.688-.048-2.484-.224 1.7 5.196 6.524 9.016 12.26 9.14-4.464 3.492-10.132 5.596-16.268 5.596-1.076 0-2.108-.048-3.14-.18C5.812 55.86 12.7 58 20.128 58c24.144 0 37.344-20 37.344-37.336 0-.58-.02-1.14-.048-1.696 2.604-1.848 4.792-4.156 6.576-6.812z"/></symbol><symbol id="icon-yaco" viewBox="0 0 56 64"><path d="m8.17 0 9.543 9.034L0 9.024v43.829h46.298V36.095l9.532 9.024V.001H8.17zm37.709 35.034L18.822 9.42h27.057v25.614zm-8.401 11.408H7.326V16.964h2.131v27.482h28.021v1.996zM14.446 58.688l-1.114 2.294-1.114-2.294h-.934l1.626 3.059v1.782h.844v-1.782l1.622-3.059h-.931zm1.4 4.841.392-1.127h1.875l.396 1.127h.878l-1.832-4.84H16.8l-1.829 4.84h.874zm1.33-3.814.701 2.008h-1.403l.702-2.008zm4.434 1.892c-.122.186-.183.391-.183.615 0 .408.143.739.429.994.288.253.671.379 1.15.379s.891-.13 1.237-.389l.273.322h.938l-.712-.841c.279-.381.419-.87.419-1.466h-.701c0 .326-.068.622-.203.888l-.934-1.104.329-.239c.233-.168.4-.337.502-.505.102-.171.153-.357.153-.558 0-.306-.113-.562-.339-.768-.224-.208-.512-.313-.864-.313-.39 0-.7.111-.931.332-.231.219-.346.519-.346.898 0 .155.037.316.11.482.075.166.207.368.396.605-.359.257-.6.48-.721.668zm2.184 1.071c-.237.182-.492.273-.765.273-.242 0-.434-.07-.578-.209s-.216-.321-.216-.545c0-.259.133-.49.399-.691l.103-.073 1.057 1.247zm-.867-2.145c-.228-.281-.342-.515-.342-.701 0-.162.047-.296.14-.402s.218-.16.376-.16c.146 0 .267.045.362.136.095.089.143.196.143.322 0 .191-.069.347-.206.469l-.103.083-.369.253zm7.879 2.63c.332-.29.523-.694.572-1.21h-.838c-.044.346-.149.593-.316.741s-.415.223-.745.223c-.361 0-.636-.137-.824-.412-.186-.275-.279-.674-.279-1.197v-.429c.004-.516.104-.908.299-1.173.197-.268.479-.402.844-.402.315 0 .553.078.715.233.164.153.266.403.306.751h.838c-.053-.53-.243-.94-.569-1.23s-.756-.435-1.29-.435c-.397 0-.747.094-1.051.283-.301.188-.533.457-.695.804s-.243.75-.243 1.207v.452c.007.445.09.837.249 1.173s.386.597.678.781c.295.182.635.273 1.021.273.552 0 .994-.144 1.326-.432zm4.943-.678c.164-.359.246-.776.246-1.25v-.269c-.002-.472-.086-.885-.253-1.24-.166-.357-.402-.629-.708-.818-.304-.191-.653-.286-1.047-.286s-.745.096-1.051.289c-.304.191-.54.467-.708.828-.166.361-.249.778-.249 1.25v.273c.002.463.086.872.253 1.227.168.355.406.628.712.821.308.191.658.286 1.051.286.397 0 .747-.095 1.05-.286.306-.193.541-.468.705-.825zm-.901-2.736c.204.286.306.697.306 1.233v.253c0 .545-.101.96-.303 1.243-.199.284-.485.426-.858.426-.368 0-.656-.145-.864-.435-.206-.29-.309-.701-.309-1.233v-.279c.005-.521.109-.923.313-1.207.206-.286.491-.429.854-.429.372 0 .659.143.861.429z"/></symbol></defs></svg>